<svg>
	<symbol id="program_up" viewBox="0 0 86 86" fill="none" xmlns="http://www.w3.org/2000/svg">
		<circle cx="42.7893" cy="43.2658" r="42.5866" fill="#002265" />
		<path d="M43.8497 17.6991C43.2639 17.1133 42.3142 17.1133 41.7284 17.6991L32.1825 27.245C31.5967 27.8308 31.5967 28.7805 32.1825 29.3663C32.7682 29.9521 33.718 29.9521 34.3038 29.3663L42.7891 20.8811L51.2743 29.3663C51.8601 29.9521 52.8099 29.9521 53.3957 29.3663C53.9815 28.7805 53.9815 27.8308 53.3957 27.245L43.8497 17.6991ZM44.2891 67.772V18.7597H41.2891V67.772H44.2891Z" fill="white" />
	</symbol>
	<symbol id="archive_time" viewBox="0 0 31 31" fill="none" xmlns="http://www.w3.org/2000/svg">
		<path d="M15.8247 2.56055C8.94971 2.56055 3.32471 8.18555 3.32471 15.0605C3.32471 21.9355 8.94971 27.5605 15.8247 27.5605C22.6997 27.5605 28.3247 21.9355 28.3247 15.0605C28.3247 8.18555 22.6997 2.56055 15.8247 2.56055ZM21.0747 20.3105L14.5747 16.3105V8.81055H16.4497V15.3105L22.0747 18.6855L21.0747 20.3105Z" fill="#009D3D" />
	</symbol>
</svg>
