<svg width="171" height="36" viewBox="0 0 171 36" fill="none" xmlns="http://www.w3.org/2000/svg">
<g clip-path="url(#clip0_85_5327)">
<path fill-rule="evenodd" clip-rule="evenodd" d="M18.0871 -0.0383301C8.06913 -0.0383301 -0.0500488 8.06887 -0.0500488 18.0721C-0.0500488 28.0753 8.06913 36.1825 18.0871 36.1825C28.1051 36.1825 36.2243 28.0753 36.2243 18.0721C36.2243 8.06887 28.1051 -0.0383301 18.0871 -0.0383301ZM18.0871 27.6529C12.7897 27.6529 8.49216 23.3617 8.49216 18.0721C8.49216 12.7825 12.7897 8.49127 18.0871 8.49127C23.3845 8.49127 27.6821 12.7825 27.6821 18.0721C27.6821 23.3617 23.3845 27.6529 18.0871 27.6529Z" fill="#94005F"/>
<path fill-rule="evenodd" clip-rule="evenodd" d="M62.1347 32.6545C57.4237 29.5057 54.3184 24.1441 54.3184 18.0577C54.3184 11.9713 57.4189 6.60974 62.1347 3.46094L62.3222 3.47054L62.3174 32.6929H62.1828L62.1347 32.6545Z" fill="#504690"/>
<path fill-rule="evenodd" clip-rule="evenodd" d="M50.2177 32.6545C45.5068 29.5057 42.4014 24.1441 42.4014 18.0577C42.4014 11.9713 45.5019 6.60974 50.2177 3.46094L50.4052 3.47054L50.4004 32.6929H50.2658L50.2177 32.6545Z" fill="#94005F"/>
<path fill-rule="evenodd" clip-rule="evenodd" d="M74.1618 32.6545C69.4508 29.5057 66.3455 24.1441 66.3455 18.0577C66.3455 11.9713 69.446 6.60974 74.1618 3.46094L74.3493 3.47054L74.3445 32.6929H74.2099L74.1618 32.6545Z" fill="#E66728"/>
<path d="M87.2546 15.6865C85.9069 14.9639 84.8517 13.9689 84.0888 12.6999C83.3259 11.4309 82.9453 10.0052 82.9453 8.42142C82.9453 6.8376 83.3259 5.41037 84.0888 4.14298C84.8517 2.87397 85.9053 1.87898 87.2546 1.15476C88.6023 0.432172 90.1149 0.0700684 91.7942 0.0700684C93.4735 0.0700684 94.9828 0.432172 96.3223 1.15476C97.6618 1.87735 98.7171 2.87397 99.4881 4.14298C100.258 5.412 100.643 6.8376 100.643 8.42142C100.643 10.0052 100.258 11.4325 99.4881 12.6999C98.7171 13.9689 97.6635 14.9639 96.3223 15.6865C94.9828 16.4091 93.4735 16.7712 91.7942 16.7712C90.1165 16.7712 88.6023 16.4091 87.2546 15.6865ZM94.3817 12.9299C95.1511 12.4911 95.7571 11.881 96.1949 11.0965C96.6344 10.3119 96.8532 9.41967 96.8532 8.42142C96.8532 7.42154 96.6344 6.52932 96.1949 5.74475C95.7555 4.96018 95.1511 4.34851 94.3817 3.91137C93.6107 3.47259 92.7498 3.25402 91.7942 3.25402C90.8386 3.25402 89.9761 3.47259 89.2067 3.91137C88.4356 4.35014 87.8312 4.96018 87.3934 5.74475C86.954 6.52932 86.7351 7.42154 86.7351 8.42142C86.7351 9.4213 86.954 10.3135 87.3934 11.0965C87.8329 11.881 88.4373 12.4927 89.2067 12.9299C89.9761 13.3686 90.8386 13.5872 91.7942 13.5872C92.7498 13.5872 93.6123 13.3686 94.3817 12.9299Z" fill="#94005F"/>
<path d="M117.573 16.4941L117.55 6.82804L112.792 14.7863H111.129L106.37 7.01236V16.4941H102.858V0.345947H105.954L112.006 10.3806L117.967 0.345947H121.062L121.085 16.4941H117.573Z" fill="#94005F"/>
<path d="M136.837 13.4944V16.4941H124.316V0.345947H136.538V3.34558H128.036V6.8525H135.543V9.75917H128.036V13.4961H136.837V13.4944Z" fill="#94005F"/>
<path d="M151.023 9.58449C151.554 10.2696 151.82 11.0656 151.82 11.9725C151.82 12.9577 151.497 13.8107 150.85 14.5333C150.203 15.2559 149.329 15.8105 148.228 16.1938C147.127 16.5788 145.922 16.7712 144.613 16.7712C143.504 16.7712 142.398 16.6326 141.297 16.3553C140.196 16.078 139.152 15.6555 138.167 15.0863L139.322 12.4112C140.029 12.8418 140.812 13.1697 141.666 13.3915C142.521 13.615 143.357 13.7259 144.174 13.7259C145.283 13.7259 146.203 13.5269 146.934 13.1257C147.666 12.726 148.032 12.1649 148.032 11.4423C148.032 10.8421 147.782 10.3886 147.281 10.082C146.779 9.77371 146.098 9.62038 145.236 9.62038H141.286V6.80505H144.959C145.714 6.80505 146.304 6.65172 146.727 6.34344C147.15 6.03516 147.362 5.6127 147.362 5.07443C147.362 4.44482 147.059 3.95222 146.449 3.59826C145.84 3.24431 145.059 3.06815 144.105 3.06815C143.396 3.06815 142.664 3.16438 141.91 3.35685C141.155 3.54932 140.438 3.83803 139.762 4.22134L138.63 1.31469C140.34 0.438772 142.187 0 144.174 0C145.436 0 146.6 0.18431 147.663 0.552944C148.726 0.921579 149.573 1.45985 150.205 2.16776C150.835 2.87567 151.152 3.69776 151.152 4.63566C151.152 5.40555 150.945 6.08898 150.528 6.68924C150.112 7.28949 149.542 7.74948 148.818 8.07407C149.756 8.39704 150.492 8.90105 151.023 9.58449Z" fill="#94005F"/>
<path d="M157.385 15.6865C156.038 14.9639 154.983 13.9689 154.22 12.6999C153.457 11.4309 153.076 10.0052 153.076 8.42142C153.076 6.8376 153.457 5.41037 154.22 4.14298C154.983 2.87397 156.036 1.87898 157.385 1.15476C158.733 0.432172 160.246 0.0700684 161.925 0.0700684C163.604 0.0700684 165.114 0.432172 166.453 1.15476C167.793 1.87735 168.848 2.87397 169.619 4.14298C170.388 5.412 170.774 6.8376 170.774 8.42142C170.774 10.0052 170.388 11.4325 169.619 12.6999C168.848 13.9689 167.794 14.9639 166.453 15.6865C165.114 16.4091 163.604 16.7712 161.925 16.7712C160.246 16.7712 158.733 16.4091 157.385 15.6865ZM164.513 12.9299C165.282 12.4911 165.886 11.881 166.326 11.0965C166.765 10.3119 166.984 9.41967 166.984 8.42142C166.984 7.42154 166.765 6.52932 166.326 5.74475C165.886 4.96018 165.282 4.34851 164.513 3.91137C163.742 3.47259 162.881 3.25402 161.925 3.25402C160.969 3.25402 160.107 3.47259 159.338 3.91137C158.566 4.35014 157.964 4.96018 157.524 5.74475C157.085 6.52932 156.866 7.42154 156.866 8.42142C156.866 9.4213 157.085 10.3135 157.524 11.0965C157.964 11.881 158.568 12.4927 159.338 12.9299C160.107 13.3686 160.969 13.5872 161.925 13.5872C162.879 13.5872 163.742 13.3686 164.513 12.9299Z" fill="#94005F"/>
<path d="M92.8331 26.0639H88.8211V36.2209H85.9559V26.0639H81.9619V23.7036H92.8315V26.0639H92.8331Z" fill="#94005F"/>
<path d="M103.93 33.8965V36.2209H94.2231V23.7036H103.698V26.028H97.108V28.7454H102.928V30.998H97.108V33.8949H103.93V33.8965Z" fill="#94005F"/>
<path d="M114.226 24.2565C115.043 24.6267 115.673 25.1503 116.116 25.8305C116.557 26.5107 116.779 27.3148 116.779 28.2446C116.779 29.1629 116.559 29.9638 116.116 30.6489C115.675 31.3339 115.044 31.8592 114.226 32.2229C113.407 32.5866 112.444 32.7677 111.333 32.7677H108.807V36.2192H105.906V23.7019H111.333C112.444 23.7019 113.407 23.8878 114.226 24.2565ZM113.161 29.8447C113.615 29.4696 113.842 28.9362 113.842 28.2446C113.842 27.5416 113.615 27.0017 113.161 26.6265C112.707 26.2514 112.045 26.0621 111.173 26.0621H108.809V30.4075H111.173C112.043 30.4091 112.707 30.2215 113.161 29.8447Z" fill="#94005F"/>
<path d="M125.976 33.5377H120.156L119.045 36.2209H116.072L121.658 23.7036H124.524L130.128 36.2209H127.083L125.976 33.5377ZM125.063 31.3389L123.075 26.5467L121.087 31.3389H125.063Z" fill="#94005F"/>
<path d="M142.872 23.7019V36.2192H139.988V26.0621H134.33V36.2192H131.447V23.7019H142.872Z" fill="#94005F"/>
<path d="M145.453 23.7019H148.336V31.8559L154.318 23.7019H157.039V36.2192H154.174V28.0831L148.192 36.2192H145.453V23.7019Z" fill="#94005F"/>
<path d="M169.751 23.7019V36.2192H166.886V32.8933H164.237L162.017 36.2192H158.954L161.569 32.4464C160.721 32.1006 160.071 31.5786 159.617 30.8821C159.163 30.1856 158.936 29.3472 158.936 28.3702C158.936 27.4046 159.156 26.5727 159.599 25.8762C160.04 25.1797 160.667 24.6431 161.479 24.2663C162.291 23.8911 163.247 23.7035 164.344 23.7035H169.751V23.7019ZM162.525 26.6347C162.089 27.0163 161.871 27.5823 161.871 28.3343C161.871 29.0618 162.08 29.6213 162.499 30.0144C162.917 30.4075 163.531 30.6048 164.343 30.6048H166.886V26.0621H164.415C163.591 26.0638 162.961 26.2546 162.525 26.6347Z" fill="#94005F"/>
</g>
<defs>
<clipPath id="clip0_85_5327">
<rect width="171" height="36" fill="white"/>
</clipPath>
</defs>
</svg>
