<svg width="150" height="37" viewBox="0 0 150 37" fill="none" xmlns="http://www.w3.org/2000/svg">
<g clip-path="url(#clip0_85_5275)">
<path d="M31.851 16.8673L27.8182 11.0482L26.7788 12.3492V16.8673H22.8167V1.40552H26.7788V7.75589L31.5018 1.40552H36.3869L30.4208 8.63858L36.7112 16.8673H31.851Z" fill="#009D3D"/>
<path d="M37.8877 16.8673V1.40552H49.1547V4.88191H41.8498V7.29153H48.9925V10.7721H41.8498V13.3909H49.1547V16.8673H37.8877Z" fill="#009D3D"/>
<path d="M54.8922 16.8673V4.88191H50.5808V1.40552H63.1408V4.88191H58.8543V16.8673H54.8922Z" fill="#009D3D"/>
<path d="M76.1373 9.14901C76.1373 6.62225 74.5034 4.6728 71.9673 4.6728C69.4104 4.6728 67.7723 6.62225 67.7723 9.14901C67.7723 11.6549 69.4063 13.6252 71.9673 13.6252C74.4993 13.621 76.1373 11.6507 76.1373 9.14901ZM63.7395 9.14901C63.7395 4.44271 67.2651 1.15039 71.9631 1.15039C76.6653 1.15039 80.166 4.44271 80.166 9.14901C80.166 13.8553 76.6653 17.1476 71.9631 17.1476C67.2651 17.1476 63.7395 13.8553 63.7395 9.14901Z" fill="#009D3D"/>
<path d="M91.1835 6.55108C91.1835 5.48431 90.4019 4.88191 89.3417 4.88191H86.1404V8.19514H89.3417C90.3977 8.19933 91.1835 7.59274 91.1835 6.55108ZM82.1741 16.8673V1.40552H89.8697C93.3246 1.40552 95.2163 3.74821 95.2163 6.55108C95.2163 9.33302 93.3288 11.6757 89.8697 11.6757H86.1362V16.8673H82.1741Z" fill="#009D3D"/>
<path d="M108.604 9.14901C108.604 6.62225 106.97 4.6728 104.434 4.6728C101.877 4.6728 100.239 6.62225 100.239 9.14901C100.239 11.6549 101.873 13.6252 104.434 13.6252C106.966 13.621 108.604 11.6507 108.604 9.14901ZM96.2058 9.14901C96.2058 4.44271 99.7314 1.15039 104.429 1.15039C109.132 1.15039 112.632 4.44271 112.632 9.14901C112.632 13.8553 109.132 17.1476 104.429 17.1476C99.7314 17.1476 96.2058 13.8553 96.2058 9.14901Z" fill="#009D3D"/>
<path d="M113.052 13.621C114.482 13.621 115.401 12.7634 115.842 9.24099L116.765 1.40552H128.215V16.8673H124.253V4.88191H120.336L119.783 9.54219C119.047 15.8005 116.42 17.1476 113.056 17.1476V13.621H113.052Z" fill="#009D3D"/>
<path d="M22.8333 20.3062H33.2937C37.9959 20.3062 41.6129 23.5315 41.6129 28.3048C41.6129 33.0571 37.9959 36.3034 33.2937 36.3034H30.1422C30.1422 36.3034 28.9573 33.7515 28.5083 32.7684C28.5083 32.7684 31.7928 32.7768 33.4059 32.7768C35.4348 32.7768 36.7943 31.618 37.3016 29.9237H27.2444L25.6562 26.4432H37.235C36.6821 24.8911 35.3433 23.8244 33.4101 23.8244L24.4547 23.8453L22.8333 20.3062Z" fill="#009D3D"/>
<path d="M52.5971 36.0272L48.5643 30.2082L47.5249 31.5092V36.0272H43.5627V20.5613H47.5249V26.9158L52.252 20.5613H57.1372L51.1669 27.7985L57.4573 36.0272H52.5971Z" fill="#009D3D"/>
<path d="M56.8337 28.3089C56.8337 23.5315 60.43 20.3103 65.153 20.3103C68.8616 20.3103 70.8447 22.4187 71.8591 24.4602L68.45 26.0834C67.9427 24.8535 66.6289 23.8327 65.153 23.8327C62.6419 23.8327 60.8666 25.7822 60.8666 28.3089C60.8666 30.8357 62.6419 32.7851 65.153 32.7851C66.6289 32.7851 67.9427 31.7644 68.45 30.5345L71.8591 32.1576C70.8697 34.1531 68.8616 36.3075 65.153 36.3075C60.43 36.3075 56.8337 33.0612 56.8337 28.3089Z" fill="#009D3D"/>
<path d="M83.9119 36.0272V24.0419H77.5259V36.0272H73.5637V20.5613H87.874V36.0272H83.9119Z" fill="#009D3D"/>
<path d="M99.6483 25.711C99.6483 24.6443 98.8667 24.0419 97.8065 24.0419H94.6011V27.3593H97.8065C98.8667 27.3551 99.6483 26.7527 99.6483 25.711ZM90.6389 36.0272V20.5613H98.3345C101.789 20.5613 103.681 22.904 103.681 25.7068C103.681 28.4888 101.794 30.8315 98.3345 30.8315H94.6011V36.0272H90.6389Z" fill="#009D3D"/>
<path d="M105.456 36.0272V20.5613H116.723V24.0419H109.418V26.4515H116.561V29.9321H109.418V32.5508H116.723V36.0272H105.456Z" fill="#009D3D"/>
<path d="M118.241 28.3089C118.241 23.5315 121.837 20.3103 126.56 20.3103C130.269 20.3103 132.252 22.4187 133.266 24.4602L129.857 26.0834C129.35 24.8535 128.036 23.8327 126.56 23.8327C124.049 23.8327 122.274 25.7822 122.274 28.3089C122.274 30.8357 124.049 32.7851 126.56 32.7851C128.036 32.7851 129.35 31.7644 129.857 30.5345L133.266 32.1576C132.277 34.1531 130.269 36.3075 126.56 36.3075C121.837 36.3075 118.241 33.0612 118.241 28.3089Z" fill="#009D3D"/>
<path d="M134.189 28.3089C134.189 23.5315 137.785 20.3103 142.508 20.3103C146.217 20.3103 148.2 22.4187 149.215 24.4602L145.805 26.0834C145.298 24.8535 143.984 23.8327 142.508 23.8327C139.997 23.8327 138.222 25.7822 138.222 28.3089C138.222 30.8357 139.997 32.7851 142.508 32.7851C143.984 32.7851 145.298 31.7644 145.805 30.5345L149.215 32.1576C148.225 34.1531 146.217 36.3075 142.508 36.3075C137.781 36.3075 134.189 33.0612 134.189 28.3089Z" fill="#009D3D"/>
<path d="M21.1246 22.1929C21.1246 23.1843 20.3263 23.9875 19.341 23.9875C18.3556 23.9875 17.5574 23.1843 17.5574 22.1929C17.5574 21.2014 18.3556 20.3982 19.341 20.3982C20.3263 20.3982 21.1246 21.2014 21.1246 22.1929Z" fill="#009D3D"/>
<path d="M16.2144 22.1302C16.2144 23.0756 15.4535 23.8412 14.5139 23.8412C13.5743 23.8412 12.8135 23.0756 12.8135 22.1302C12.8135 21.1847 13.5743 20.4192 14.5139 20.4192C15.4535 20.4192 16.2144 21.1847 16.2144 22.1302Z" fill="#009D3D"/>
<path d="M11.3085 22.1301C11.3085 23.0169 10.5934 23.7323 9.71612 23.7323C8.83472 23.7323 8.12378 23.0128 8.12378 22.1301C8.12378 21.2432 8.83888 20.5278 9.71612 20.5278C10.5934 20.5278 11.3085 21.2474 11.3085 22.1301Z" fill="#009D3D"/>
<path d="M3.77515 22.13C3.77515 21.3352 4.41541 20.6868 5.2095 20.6868C5.99944 20.6868 6.64386 21.331 6.64386 22.13C6.64386 22.9291 6.0036 23.5733 5.2095 23.5733C4.41957 23.5733 3.77515 22.9291 3.77515 22.13Z" fill="#009D3D"/>
<path d="M0 22.13C0 21.4858 0.519694 20.967 1.1558 20.967C1.79191 20.967 2.3116 21.49 2.3116 22.13C2.3116 22.7743 1.79191 23.293 1.1558 23.293C0.519694 23.293 0 22.7743 0 22.13Z" fill="#009D3D"/>
<path d="M24.0015 28.3926C24.0015 29.384 23.2033 30.1872 22.2179 30.1872C21.2326 30.1872 20.4343 29.384 20.4343 28.3926C20.4343 27.4011 21.2326 26.5979 22.2179 26.5979C23.2033 26.5979 24.0015 27.4011 24.0015 28.3926Z" fill="#009D3D"/>
<path d="M19.0667 28.3089C19.0667 29.2543 18.3058 30.0199 17.3662 30.0199C16.4266 30.0199 15.6658 29.2543 15.6658 28.3089C15.6658 27.3635 16.4266 26.5979 17.3662 26.5979C18.3058 26.5979 19.0667 27.3635 19.0667 28.3089Z" fill="#009D3D"/>
<path d="M14.1647 28.309C14.1647 29.1959 13.4496 29.9113 12.5723 29.9113C11.6909 29.9113 10.98 29.1917 10.98 28.309C10.98 27.4222 11.6951 26.7068 12.5723 26.7068C13.4496 26.7026 14.1647 27.4222 14.1647 28.309Z" fill="#009D3D"/>
<path d="M6.63135 28.309C6.63135 27.5141 7.27161 26.8657 8.0657 26.8657C8.85564 26.8657 9.50006 27.51 9.50006 28.309C9.50006 29.1038 8.8598 29.7523 8.0657 29.7523C7.27577 29.7481 6.63135 29.1038 6.63135 28.309Z" fill="#009D3D"/>
<path d="M2.8562 28.309C2.8562 27.6647 3.37174 27.146 4.012 27.146C4.65227 27.146 5.1678 27.6689 5.1678 28.309C5.1678 28.9532 4.64811 29.472 4.012 29.472C3.37174 29.472 2.8562 28.949 2.8562 28.309Z" fill="#009D3D"/>
<path d="M26.858 34.5254C26.858 35.5168 26.0597 36.3201 25.0744 36.3201C24.089 36.3201 23.2908 35.5168 23.2908 34.5254C23.2908 33.5339 24.089 32.7307 25.0744 32.7307C26.0597 32.7307 26.858 33.5339 26.858 34.5254Z" fill="#009D3D"/>
<path d="M21.9229 34.5255C21.9229 35.4709 21.162 36.2365 20.2224 36.2365C19.2828 36.2365 18.522 35.4709 18.522 34.5255C18.522 33.58 19.2828 32.8145 20.2224 32.8145C21.162 32.8145 21.9229 33.58 21.9229 34.5255Z" fill="#009D3D"/>
<path d="M17.017 34.5253C17.017 35.4122 16.3019 36.1276 15.4246 36.1276C14.5432 36.1276 13.8323 35.408 13.8323 34.5253C13.8323 33.6385 14.5474 32.9231 15.4246 32.9231C16.3019 32.9231 17.017 33.6426 17.017 34.5253Z" fill="#009D3D"/>
<path d="M9.48755 34.5255C9.48755 33.7307 10.1278 33.0823 10.9219 33.0823C11.7118 33.0823 12.3563 33.7265 12.3563 34.5255C12.3563 35.3246 11.716 35.9688 10.9219 35.9688C10.1278 35.9688 9.48755 35.3246 9.48755 34.5255Z" fill="#009D3D"/>
<path d="M5.70825 34.5255C5.70825 33.8813 6.22379 33.3625 6.86405 33.3625C7.50432 33.3625 8.01985 33.8855 8.01985 34.5255C8.01985 35.1698 7.50016 35.6885 6.86405 35.6885C6.22795 35.6885 5.70825 35.1698 5.70825 34.5255Z" fill="#009D3D"/>
<path d="M133.142 1.64825H132.31V2.78195H133.142C133.424 2.78195 133.732 2.56441 133.732 2.22974C133.732 1.86579 133.424 1.64825 133.142 1.64825ZM133.678 4.51387L132.83 3.21702H132.306V4.51387H131.807V1.22991H133.137C133.686 1.22991 134.239 1.62315 134.239 2.22974C134.239 2.95765 133.595 3.20447 133.408 3.20447L134.281 4.51387H133.678ZM132.913 0.472722C131.595 0.472722 130.535 1.52693 130.535 2.86562C130.535 4.17501 131.595 5.25851 132.913 5.25851C134.231 5.25851 135.291 4.1792 135.291 2.86562C135.291 1.52693 134.227 0.472722 132.913 0.472722ZM132.913 5.73123C131.341 5.73123 130.065 4.44693 130.065 2.86562C130.065 1.27175 131.341 0 132.913 0C134.497 0 135.761 1.27175 135.761 2.86562C135.761 4.44693 134.497 5.73123 132.913 5.73123Z" fill="#009D3D"/>
</g>
<defs>
<clipPath id="clip0_85_5275">
<rect width="149.215" height="36.3201" fill="white"/>
</clipPath>
</defs>
</svg>
