<svg width="100%" height="241" viewBox="0 0 1440 241" fill="none" xmlns="http://www.w3.org/2000/svg">
<path d="M-140 241.323L-82.7 200.123C-25.4 158.923 89.2 76.5226 203.8 76.5226C318.4 76.5226 433 158.923 547.6 158.923C662.2 158.923 776.8 76.5226 891.4 62.8751C1006 48.1976 1120.6 104.848 1235.2 90.1701C1349.8 76.5226 1464.4 -5.87736 1521.7 -47.0774L1579 -88.2773V241.323H1521.7C1464.4 241.323 1349.8 241.323 1235.2 241.323C1120.6 241.323 1006 241.323 891.4 241.323C776.8 241.323 662.2 241.323 547.6 241.323C433 241.323 318.4 241.323 203.8 241.323C89.2 241.323 -25.4 241.323 -82.7 241.323H-140Z" fill="#564298"/>
</svg>
